<?xml version="1.0" encoding="utf-8"?>
<!-- Generator: Adobe Illustrator 18.1.1, SVG Export Plug-In . SVG Version: 6.00 Build 0)  -->
<!DOCTYPE svg PUBLIC "-//W3C//DTD SVG 1.1//EN" "http://www.w3.org/Graphics/SVG/1.1/DTD/svg11.dtd">
<svg version="1.1" id="Layer_2" xmlns="http://www.w3.org/2000/svg" xmlns:xlink="http://www.w3.org/1999/xlink" x="0px" y="0px"
	 viewBox="0 0 165.3 113.4" enable-background="new 0 0 165.3 113.4" xml:space="preserve">
<g id="_x32_8px_All_Rounded_4_">
	<path fill="#5BB347" d="M149,16.2c-7.8,0.4-14.1,6.7-14.6,14.4c-0.2,3.8,0.9,7.3,3,10.1
		c0.1,0.2,0.1,0.4,0,0.6l-28.7,34.5c-0.1,0.2-0.4,0.1-0.5-0.1L88.6,30.2c-0.1-0.2,0-0.5,0.2-0.6c5.7-2.5,9.6-8.4,9.2-15
		C97.6,6.7,91.3,0.4,83.5,0c-8.9-0.5-16.3,6.6-16.3,15.4c0,6.2,3.7,11.6,9,14c0.2,0.1,0.3,0.4,0.2,0.6L56.9,75.8
		c-0.1,0.2-0.4,0.2-0.5,0.1L27.9,41.4c-0.1-0.2-0.1-0.4,0-0.6c2.1-2.8,3.2-6.3,3-10.1c-0.5-7.8-6.8-14-14.6-14.4
		C7.4,15.8,0,22.9,0,31.7c0,8.5,6.9,15.4,15.4,15.4c0.3,0,0.6,0,0.9,0c0.2,0,0.4,0.1,0.5,0.3l24.5,58.2c1.8,4.2,7.8,4.2,9.5,0
		l7.3-17.2c0.1-0.2,0.4-0.2,0.5-0.1L77.6,111c2.6,3.1,7.3,3.1,9.9,0l19-22.8c0.1-0.2,0.4-0.1,0.5,0.1l7.5,17.4
		c1.8,4.2,7.8,4.2,9.5,0l24.6-58.2c0.1-0.2,0.3-0.3,0.5-0.3c0.3,0,0.5,0,0.8,0c8.5,0,15.4-6.9,15.4-15.4
		C165.3,22.9,157.9,15.8,149,16.2z M5.8,31.7c0-5.3,4.3-9.6,9.6-9.6s9.6,4.3,9.6,9.6s-4.3,9.6-9.6,9.6S5.8,37,5.8,31.7z M73,15.4
		c0-5.3,4.3-9.6,9.6-9.6c5.3,0,9.6,4.3,9.6,9.6s-4.3,9.6-9.6,9.6C77.3,25.1,73,20.7,73,15.4z M83.8,105.9c-0.7,0.8-1.9,0.8-2.6,0
		l-20-24.2c-0.1-0.1-0.1-0.2,0-0.3l21-49.3c0.1-0.3,0.5-0.3,0.6,0L104,81.4c0,0.1,0,0.2,0,0.3L83.8,105.9z M46.8,99.7
		c-0.5,1.3-0.8,1.3-1.3,0L22.8,45.8c-0.1-0.3,0.3-0.6,0.6-0.3l30.6,37c0.1,0.1,0.1,0.2,0,0.3L46.8,99.7z M142.7,45.7l-22.8,54.1
		c-0.5,1.3-0.8,1.3-1.3,0l-7.3-17c0-0.1,0-0.2,0-0.3l30.8-37.1c0.1-0.1,0.3-0.1,0.4-0.1c0,0,0,0,0.1,0
		C142.7,45.3,142.7,45.5,142.7,45.7z M149.8,41.3c-5.3,0-9.6-4.3-9.6-9.6s4.3-9.6,9.6-9.6c5.3,0,9.6,4.3,9.6,9.6
		S155.2,41.3,149.8,41.3z"/>
</g>
</svg>
