<?xml version="1.0" encoding="utf-8"?>
<!-- Generator: Adobe Illustrator 18.1.1, SVG Export Plug-In . SVG Version: 6.00 Build 0)  -->
<!DOCTYPE svg PUBLIC "-//W3C//DTD SVG 1.1//EN" "http://www.w3.org/Graphics/SVG/1.1/DTD/svg11.dtd">
<svg version="1.1" id="Layer_1" xmlns="http://www.w3.org/2000/svg" xmlns:xlink="http://www.w3.org/1999/xlink" x="0px" y="0px"
	 viewBox="0 0 649 117" enable-background="new 0 0 649 117" xml:space="preserve">
<g>
	<g>
		<path fill="#FFFFFF" d="M330.2,79.4l-9.4-14.5h-21v14.5h-6.7V37.3h28.2c10.8,0,16,6.6,16,13.8c0,5.8-3,10.8-9.3,12.9l9.9,15.5
			H330.2z M299.9,43.4v15.4h20.7c7.9,0,9.5-3.9,9.5-7.7c0-3.4-1.6-7.6-9.5-7.6H299.9z"/>
		<path fill="#FFFFFF" d="M414.9,76c-5.8,2.9-12.8,4.2-20.4,4.2c-18,0-30-7.9-30-21.8c0-13.8,11.9-21.8,30-21.8
			c8,0,14.7,1.6,20.4,4.4v6.5c-4.9-2.9-12.2-4.9-20.2-4.9c-13.8,0-22.7,5.9-22.7,15.9s9,15.9,22.9,15.9c7.7,0,15.4-1.8,20-4.4V76z"
			/>
		<path fill="#FFFFFF" d="M492.2,76c-5.8,2.9-12.8,4.2-20.4,4.2c-18,0-30-7.9-30-21.8c0-13.8,11.9-21.8,30-21.8
			c8,0,14.7,1.6,20.4,4.4v6.5c-4.9-2.9-12.2-4.9-20.2-4.9c-13.8,0-22.7,5.9-22.7,15.9s9,15.9,22.9,15.9c7.7,0,15.4-1.8,20-4.4V76z"
			/>
		<path fill="#FFFFFF" d="M547.5,80.2c-16.8,0-29.7-8.3-29.7-21.8s12.9-21.8,29.7-21.8c16.9,0,29.7,8.3,29.7,21.8
			S564.3,80.2,547.5,80.2z M547.5,42.6c-12.8,0-22.2,6-22.2,15.8c0,9.7,9.4,15.9,22.2,15.9c12.8,0,22.2-6.1,22.2-15.9
			C569.7,48.6,560.2,42.6,547.5,42.6z"/>
		<path fill="#FFFFFF" d="M641.8,45.3c-4-1.3-10.3-2.7-15.8-2.7c-7.4,0-15.6,1.1-15.6,5.7c0,4.8,8.3,5.6,16.2,7
			c8,1.4,19.3,3.1,20.2,11.4c1.1,9.7-7.9,13.4-20.2,13.4c-6.5,0-15.4-1.2-21.9-4.2l0-6.2c7,3,14.7,4.5,21.9,4.4
			c9.3,0,14-2.6,13.5-6.5c-0.5-4.3-8.6-5.2-16-6.6c-9.7-1.9-20.5-3.6-20.9-12.1c-0.4-10.2,12.9-12.4,22.1-12.4
			c6.2,0,12,1.3,16.4,2.6L641.8,45.3z"/>
		<path fill="#FFFFFF" d="M260.7,79.4h7.6l-27.2-42.5L214,79.4h7.6l4.3-6.7h30.6L260.7,79.4z M229.7,66.6l11.4-17.9l11.4,17.9H229.7
			z"/>
	</g>
	<g id="_x32_8px_All_Rounded_2_">
		<path id="_x32_8px_All_Rounded_3_" fill="#5CB347" d="M155,17.1c-8,0.4-14.5,6.8-15,14.8c-0.2,3.9,0.9,7.5,3.1,10.4
			c0.1,0.2,0.1,0.4,0,0.6l-29.4,35.4c-0.1,0.2-0.4,0.1-0.5-0.1L92.9,31.4c-0.1-0.2,0-0.5,0.2-0.6c5.9-2.6,9.9-8.6,9.5-15.5
			c-0.5-8-6.9-14.5-15-14.9C78.6,0,71,7.2,71,16.3c0,6.4,3.8,11.9,9.2,14.4c0.2,0.1,0.3,0.4,0.2,0.6l-20,47
			c-0.1,0.2-0.4,0.3-0.5,0.1L30.6,42.9c-0.1-0.2-0.1-0.4,0-0.6c2.1-2.9,3.3-6.5,3.1-10.4c-0.5-8-7-14.4-15-14.8
			C9.6,16.6,2,23.9,2,32.9c0,8.7,7.1,15.8,15.8,15.8c0.3,0,0.6,0,0.9,0c0.2,0,0.4,0.1,0.5,0.3l25.2,59.8c1.8,4.3,8,4.3,9.8,0
			l7.5-17.7c0.1-0.2,0.4-0.3,0.5-0.1l19.3,23.4c2.6,3.2,7.5,3.2,10.2,0L111.3,91c0.1-0.2,0.4-0.1,0.5,0.1l7.7,17.8
			c1.9,4.3,8,4.3,9.8,0L154.5,49c0.1-0.2,0.3-0.3,0.5-0.3c0.3,0,0.6,0,0.8,0c8.7,0,15.8-7.1,15.8-15.8
			C171.7,23.9,164.1,16.6,155,17.1z M8,32.9c0-5.5,4.4-9.9,9.9-9.9s9.9,4.4,9.9,9.9s-4.4,9.9-9.9,9.9S8,38.4,8,32.9z M77,16.3
			c0-5.5,4.4-9.9,9.9-9.9s9.9,4.4,9.9,9.9s-4.4,9.9-9.9,9.9S77,21.7,77,16.3z M88.1,109.2c-0.7,0.8-2,0.8-2.7,0L64.9,84.3
			c-0.1-0.1-0.1-0.2,0-0.3l21.5-50.6c0.1-0.3,0.5-0.3,0.6,0L108.8,84c0,0.1,0,0.2,0,0.3L88.1,109.2z M50,102.7
			c-0.5,1.3-0.8,1.3-1.4,0L25.4,47.5c-0.2-0.4,0.3-0.6,0.6-0.3l31.4,38c0.1,0.1,0.1,0.2,0,0.3L50,102.7z M148.5,47.3l-23.4,55.5
			c-0.5,1.3-0.8,1.3-1.4,0l-7.5-17.4c0-0.1,0-0.2,0-0.3L147.9,47c0.1-0.1,0.3-0.1,0.4-0.1c0,0,0,0,0.1,0
			C148.5,47,148.6,47.1,148.5,47.3z M155.9,42.8c-5.5,0-9.9-4.4-9.9-9.9s4.4-9.9,9.9-9.9s9.9,4.4,9.9,9.9S161.3,42.8,155.9,42.8z"/>
	</g>
</g>
</svg>
